<?xml version="1.0" encoding="UTF-8"?>
<svg version="1.1" xmlns="http://www.w3.org/2000/svg" width="50" height="50">
<path d="M0 0 C16.5 0 33 0 50 0 C50 16.5 50 33 50 50 C33.5 50 17 50 0 50 C0 33.5 0 17 0 0 Z " fill="#083335" transform="translate(0,0)"/>
<path d="M0 0 C5.75 1.75 5.75 1.75 8 4 C8.6496875 3.2575 8.6496875 3.2575 9.3125 2.5 C11 1 11 1 14 1 C13.39644592 4.85025879 12.23227397 7.86101159 10.4375 11.3125 C9.98246094 12.19550781 9.52742188 13.07851563 9.05859375 13.98828125 C8.70925781 14.65214844 8.35992187 15.31601562 8 16 C6.02 15.01 4.04 14.02 2 13 C2 11.35 2 9.7 2 8 C1.62875 8.94875 1.2575 9.8975 0.875 10.875 C-1 14 -1 14 -4.1875 15.375 C-5.115625 15.58125 -6.04375 15.7875 -7 16 C-5.35433477 10.31497465 -2.70967216 5.23318364 0 0 Z " fill="#CFBC51" transform="translate(21,17)"/>
<path d="M0 0 C0.33 0.66 0.66 1.32 1 2 C1.66 2 2.32 2 3 2 C2.67 2.99 2.34 3.98 2 5 C-1.0625 6.1875 -1.0625 6.1875 -4 7 C-3.39816251 4.97954558 -2.72693904 2.97888961 -2 1 C-1.34 0.67 -0.68 0.34 0 0 Z " fill="#ADA54C" transform="translate(18,26)"/>
<path d="M0 0 C1.65 0.33 3.3 0.66 5 1 C5 1.99 5 2.98 5 4 C4 5 4 5 1.4375 5.0625 C0.2309375 5.0315625 0.2309375 5.0315625 -1 5 C-0.67 3.35 -0.34 1.7 0 0 Z " fill="#F2D557" transform="translate(24,24)"/>
<path d="M0 0 C-0.66 1.32 -1.32 2.64 -2 4 C-3.68496298 3.03114628 -5.35178756 2.03013277 -7 1 C-7 0.67 -7 0.34 -7 0 C-2.25 -1.125 -2.25 -1.125 0 0 Z " fill="#CEBC51" transform="translate(30,29)"/>
</svg>
